<svg xmlns="http://www.w3.org/2000/svg" width="106.508" height="106.506" viewBox="0 0 106.508 106.506">
  <g id="sauna" transform="translate(0 -0.004)">
    <g id="Group_333" data-name="Group 333" transform="translate(12.805 13.57)">
      <g id="Group_332" data-name="Group 332">
        <path id="Path_89" data-name="Path 89" d="M73.892,65.219A12.338,12.338,0,1,0,86.231,77.557,12.352,12.352,0,0,0,73.892,65.219Zm0,18.436a6.1,6.1,0,1,1,6.1-6.1A6.1,6.1,0,0,1,73.892,83.655Z" transform="translate(-61.554 -65.219)"/>
      </g>
    </g>
    <g id="Group_335" data-name="Group 335" transform="translate(0 41.89)">
      <g id="Group_334" data-name="Group 334">
        <path id="Path_90" data-name="Path 90" d="M76.99,255.779,65.943,224.624H44.537l-9.8-23.265h-16l-12.2,33.177a7.715,7.715,0,0,0-.33,4.137H0v6.241H52.823l10.4,17.352a7.646,7.646,0,0,0,13.764-6.487ZM21.956,238.673l3.716-5.957,3.153,5.957Zm48.4,20.947a1.407,1.407,0,0,1-1.773-.563L56.357,238.673H35.885l-9.77-18.46L15.034,237.979a1.466,1.466,0,0,1-1.251.694,1.475,1.475,0,0,1-1.384-1.983l10.7-29.089h7.5l9.8,23.265h21.14l9.573,27A1.412,1.412,0,0,1,70.352,259.619Z" transform="translate(0 -201.359)"/>
      </g>
    </g>
    <g id="Group_337" data-name="Group 337" transform="translate(64.268 0.004)">
      <g id="Group_336" data-name="Group 336" transform="translate(0 0)">
        <path id="Path_91" data-name="Path 91" d="M319.508,23.44a11.815,11.815,0,0,0-2.768-7.71,5.722,5.722,0,0,1-1.55-4.008,5.722,5.722,0,0,1,1.551-4.008A11.818,11.818,0,0,0,319.508,0h-6.241a5.723,5.723,0,0,1-1.55,4.008,11.816,11.816,0,0,0-2.768,7.71,11.815,11.815,0,0,0,2.768,7.71,5.956,5.956,0,0,1,0,8.016,12.126,12.126,0,0,0,0,15.422,5.724,5.724,0,0,1,1.551,4.009h6.241a11.817,11.817,0,0,0-2.767-7.711,5.957,5.957,0,0,1,0-8.017A11.818,11.818,0,0,0,319.508,23.44Z" transform="translate(-308.949 -0.004)"/>
      </g>
    </g>
    <g id="Group_339" data-name="Group 339" transform="translate(80.109 0.004)">
      <g id="Group_338" data-name="Group 338" transform="translate(0 0)">
        <path id="Path_92" data-name="Path 92" d="M395.655,23.441a11.815,11.815,0,0,0-2.768-7.71,5.722,5.722,0,0,1-1.55-4.008,5.722,5.722,0,0,1,1.551-4.008,11.814,11.814,0,0,0,2.767-7.71h-6.241a5.723,5.723,0,0,1-1.55,4.008,11.816,11.816,0,0,0-2.768,7.71,11.815,11.815,0,0,0,2.768,7.71,5.956,5.956,0,0,1,0,8.016,12.126,12.126,0,0,0,0,15.421,5.724,5.724,0,0,1,1.551,4.009h6.241a11.817,11.817,0,0,0-2.767-7.711,5.957,5.957,0,0,1,0-8.017A11.818,11.818,0,0,0,395.655,23.441Z" transform="translate(-385.096 -0.006)"/>
      </g>
    </g>
    <g id="Group_341" data-name="Group 341" transform="translate(95.949 0.004)">
      <g id="Group_340" data-name="Group 340" transform="translate(0 0)">
        <path id="Path_93" data-name="Path 93" d="M471.8,23.442a11.815,11.815,0,0,0-2.768-7.71,5.722,5.722,0,0,1-1.55-4.008,5.723,5.723,0,0,1,1.55-4.008A11.815,11.815,0,0,0,471.8.006h-6.241a5.723,5.723,0,0,1-1.55,4.008,11.816,11.816,0,0,0-2.768,7.71,11.815,11.815,0,0,0,2.768,7.71,5.956,5.956,0,0,1,0,8.016,12.126,12.126,0,0,0,0,15.421,5.724,5.724,0,0,1,1.551,4.009H471.8a11.817,11.817,0,0,0-2.767-7.711,5.957,5.957,0,0,1,0-8.017A11.814,11.814,0,0,0,471.8,23.442Z" transform="translate(-461.243 -0.006)"/>
      </g>
    </g>
  </g>
</svg>
