<svg xmlns="http://www.w3.org/2000/svg" width="262.07" height="191.65" viewBox="0 0 262.07 191.65">
  <g id="レイヤー_1" data-name="レイヤー 1" transform="translate(-0.01)">
    <path id="Path_95" data-name="Path 95" d="M102.89,136.98a14.42,14.42,0,0,1,5.36.95,8.977,8.977,0,0,1,3.8,2.74,6.19,6.19,0,0,1,1.41,3.92,6.111,6.111,0,0,1-1.38,3.86,9.006,9.006,0,0,1-3.79,2.76,14.393,14.393,0,0,1-5.43.98,14.032,14.032,0,0,1-5.42-1,9.049,9.049,0,0,1-3.8-2.74,6.115,6.115,0,0,1,0-7.69,8.906,8.906,0,0,1,3.75-2.79,14.225,14.225,0,0,1,5.49-.99Zm-6.77,7.61a3.542,3.542,0,0,0,.86,2.31,5.506,5.506,0,0,0,2.41,1.59,10.023,10.023,0,0,0,3.49.56,8.666,8.666,0,0,0,4.85-1.25,3.712,3.712,0,0,0,1.9-3.21,3.542,3.542,0,0,0-.86-2.31,5.4,5.4,0,0,0-2.42-1.59,10.422,10.422,0,0,0-3.51-.56,10.175,10.175,0,0,0-3.51.57,5.44,5.44,0,0,0-2.4,1.59,3.536,3.536,0,0,0-.84,2.31Zm87.12-7.61a14.42,14.42,0,0,1,5.36.95,8.977,8.977,0,0,1,3.8,2.74,6.19,6.19,0,0,1,1.41,3.92,6.111,6.111,0,0,1-1.38,3.86,9.006,9.006,0,0,1-3.79,2.76,14.393,14.393,0,0,1-5.43.98,14.032,14.032,0,0,1-5.42-1,9.049,9.049,0,0,1-3.8-2.74,6.115,6.115,0,0,1,0-7.69,8.906,8.906,0,0,1,3.75-2.79,14.225,14.225,0,0,1,5.49-.99Zm-6.77,7.61a3.542,3.542,0,0,0,.86,2.31,5.506,5.506,0,0,0,2.41,1.59,10.023,10.023,0,0,0,3.49.56,8.666,8.666,0,0,0,4.85-1.25,3.712,3.712,0,0,0,1.9-3.21,3.542,3.542,0,0,0-.86-2.31,5.4,5.4,0,0,0-2.42-1.59,10.422,10.422,0,0,0-3.51-.56,10.175,10.175,0,0,0-3.51.57,5.44,5.44,0,0,0-2.4,1.59,3.536,3.536,0,0,0-.84,2.31Zm-50.9-7.41v6.56h.09l9.1-6.56h5.5l-9.79,7.24,9.79,7.59h-5.41l-9.28-7.09v7.09h-3.98V137.19h3.98Zm25.38,0,5.42,5.41,5.49-5.41h5.15l-8.61,8.42V152h-4.05v-6.43l-8.66-8.4h5.26Zm-64.08,0v2.94H79.56V152H75.58V140.12H68.27v-2.94H86.86ZM60.31,166.73,74.3,191.1H67.39l-3.16-5.51H49.5l-3.18,5.51H39.46l13.96-24.37H60.3ZM51.8,181.6H61.93l-5.05-8.86Zm37.94-14.87v13.09a5.718,5.718,0,0,0,.91,3.41,6.514,6.514,0,0,0,2.97,2.09,12.834,12.834,0,0,0,4.8.82,14.7,14.7,0,0,0,5.1-.78,6.447,6.447,0,0,0,3.07-2.12,6.262,6.262,0,0,0,.97-3.73V166.73h6.54v14.88a8.3,8.3,0,0,1-4.1,7.43q-4.1,2.595-11.58,2.6a25.161,25.161,0,0,1-8.15-1.18A11.322,11.322,0,0,1,85,187.04a8.08,8.08,0,0,1-1.82-5.25V166.74h6.57Zm44.65,0,17.91,15.99V166.73h6.4V191.1h-6.8l-18-16.12V191.1h-6.4V166.73h6.88Zm44.39,0V191.1h-6.54V166.73Zm83.3,0v4.84H250.06v19.54h-6.54V171.57H231.5v-4.84h30.58ZM15.67,166.2a46.965,46.965,0,0,1,12.91,1.97v4.96a37.317,37.317,0,0,0-10.27-2.64,20.37,20.37,0,0,0-7.5.42c-1.39.42-2,.92-2,1.69q0,1.38,3.52,2.54.99.345,7.59,1.95a26.227,26.227,0,0,1,8.15,3.14,5.565,5.565,0,0,1,2.49,4.51c0,2.09-.8,3.7-4.37,5.36-2.82,1.32-6.39,1.55-10.9,1.55a48.343,48.343,0,0,1-7.57-.51,49.629,49.629,0,0,1-7.11-1.77v-5.81a38.044,38.044,0,0,0,12.76,3.54,20.728,20.728,0,0,0,6.65-.44c1.33-.5,1.71-1.14,1.71-1.96,0-1.26-1.16-1.79-3.48-2.5-1.93-.56-4.41-1.23-7.46-2a27.009,27.009,0,0,1-8.1-3.05Q0,175.41.01,173.11c0-2.4,1.45-4.14,4.3-5.38,2.77-1.2,6.66-1.53,11.37-1.53Zm192.04,0a46.965,46.965,0,0,1,12.91,1.97v4.96a37.317,37.317,0,0,0-10.27-2.64,20.37,20.37,0,0,0-7.5.42c-1.39.42-2,.92-2,1.69q0,1.38,3.52,2.54.99.345,7.59,1.95a26.227,26.227,0,0,1,8.15,3.14,5.565,5.565,0,0,1,2.49,4.51c0,2.09-.8,3.7-4.37,5.36-2.82,1.32-6.39,1.55-10.9,1.55a48.343,48.343,0,0,1-7.57-.51,49.629,49.629,0,0,1-7.11-1.77v-5.81a38.044,38.044,0,0,0,12.76,3.54,20.728,20.728,0,0,0,6.65-.44c1.33-.5,1.71-1.14,1.71-1.96,0-1.26-1.16-1.79-3.48-2.5-1.93-.56-4.41-1.23-7.46-2a27.009,27.009,0,0,1-8.1-3.05q-2.685-1.74-2.68-4.04c0-2.4,1.45-4.14,4.3-5.38,2.77-1.2,6.66-1.53,11.37-1.53ZM135.59,28.34c16.89,1.51,22.13,11.44,23.22,24.3h13.4C169.52,34.23,154.75,25.08,131.05,25c-1.56,0-3.08.05-4.56.14l.04,64.14c-16.91-1.51-22.15-11.44-23.24-24.3H89.89c2.69,18.41,17.46,27.56,41.16,27.64h0c1.55,0,3.05-.05,4.52-.13l.02-64.14Zm6.08,59.91v3.63c17.47-2.5,28.28-11.44,30.54-26.91h-13.4C157.86,76.14,153.79,85.09,141.67,88.25ZM120.38,29.37V25.73c-17.45,2.51-28.24,11.44-30.5,26.91h13.4C104.23,41.49,108.29,32.54,120.38,29.37ZM131.04,0C95.58,0,66.83,26.33,66.83,58.81s28.75,58.81,64.21,58.81,64.21-26.33,64.21-58.81S166.5,0,131.04,0Zm-.22,114.23a55.42,55.42,0,1,1,55.42-55.42,55.417,55.417,0,0,1-55.42,55.42Zm76.9-64.63h-6.98a54.176,54.176,0,0,1,0,18.32h6.98c1.72,0,3.12-4.1,3.12-9.16S209.44,49.6,207.72,49.6Z" fill="#fff"/>
  </g>
</svg>
