<svg id="レイヤー_1" data-name="レイヤー 1" xmlns="http://www.w3.org/2000/svg" width="260.76" height="52.06" viewBox="0 0 260.76 52.06">
  <path id="Path_96" data-name="Path 96" d="M106.88,6.67a13.445,13.445,0,0,1,5.05.9,8.475,8.475,0,0,1,3.58,2.58,5.82,5.82,0,0,1,1.33,3.7,5.741,5.741,0,0,1-1.3,3.64,8.46,8.46,0,0,1-3.57,2.6,13.387,13.387,0,0,1-5.12.93,13.168,13.168,0,0,1-5.1-.94,8.542,8.542,0,0,1-3.58-2.59,5.773,5.773,0,0,1,0-7.25,8.32,8.32,0,0,1,3.53-2.63,13.482,13.482,0,0,1,5.18-.94Zm-6.38,7.17a3.229,3.229,0,0,0,.82,2.17,5.377,5.377,0,0,0,2.27,1.5,9.662,9.662,0,0,0,3.29.53,8.2,8.2,0,0,0,4.57-1.17,3.511,3.511,0,0,0,1.79-3.03,3.313,3.313,0,0,0-.81-2.18,5.119,5.119,0,0,0-2.28-1.5,10.6,10.6,0,0,0-6.62,0,5.075,5.075,0,0,0-2.26,1.5,3.326,3.326,0,0,0-.79,2.18Zm82.13-7.17a13.445,13.445,0,0,1,5.05.9,8.475,8.475,0,0,1,3.58,2.58,5.82,5.82,0,0,1,1.33,3.7,5.741,5.741,0,0,1-1.3,3.64,8.46,8.46,0,0,1-3.57,2.6,13.387,13.387,0,0,1-5.12.93,13.168,13.168,0,0,1-5.1-.94,8.542,8.542,0,0,1-3.58-2.59,5.773,5.773,0,0,1,0-7.25,8.32,8.32,0,0,1,3.53-2.63,13.482,13.482,0,0,1,5.18-.94Zm-6.38,7.17a3.229,3.229,0,0,0,.82,2.17,5.377,5.377,0,0,0,2.27,1.5,9.662,9.662,0,0,0,3.29.53,8.2,8.2,0,0,0,4.57-1.17,3.511,3.511,0,0,0,1.79-3.03,3.313,3.313,0,0,0-.81-2.18,5.119,5.119,0,0,0-2.28-1.5,10.6,10.6,0,0,0-6.62,0,5.075,5.075,0,0,0-2.26,1.5,3.326,3.326,0,0,0-.79,2.18ZM128.27,6.85v6.19h.08l8.58-6.19h5.19l-9.22,6.82,9.22,7.15h-5.1l-8.75-6.68v6.68h-3.75V6.85h3.75Zm23.92,0,5.11,5.1,5.17-5.1h4.85l-8.12,7.94v6.04h-3.82V14.77l-8.16-7.92h4.96Zm-60.41,0V9.62H84.89v11.2H81.14V9.62H74.25V6.85H91.78Zm25.37,20.99,9.96,17.35h-4.92l-2.25-3.92H109.46l-2.26,3.92h-4.88l9.93-17.35h4.9Zm-6.06,10.58h7.21l-3.6-6.3-3.62,6.3Zm27-10.58v9.32a4.094,4.094,0,0,0,.65,2.43,4.657,4.657,0,0,0,2.11,1.49,9.19,9.19,0,0,0,3.41.59,10.427,10.427,0,0,0,3.63-.55,4.547,4.547,0,0,0,2.18-1.51,4.462,4.462,0,0,0,.69-2.65v-9.1h4.66V38.45a5.9,5.9,0,0,1-2.92,5.29q-2.91,1.845-8.24,1.85a17.926,17.926,0,0,1-5.8-.84,8.015,8.015,0,0,1-3.75-2.43,5.762,5.762,0,0,1-1.29-3.74V27.87h4.67Zm31.78,0,12.75,11.38V27.84h4.55V45.19h-4.84L169.52,33.72V45.19h-4.55V27.84h4.9Zm31.6,0V45.19h-4.66V27.84h4.66Zm59.29,0v3.44h-8.55V45.19h-4.66V31.28H239V27.84ZM85.37,27.46a33.459,33.459,0,0,1,9.19,1.4v3.53a26.554,26.554,0,0,0-7.31-1.88,14.557,14.557,0,0,0-5.34.3c-.99.3-1.43.66-1.43,1.2,0,.65.83,1.26,2.5,1.81q.705.255,5.4,1.39a18.712,18.712,0,0,1,5.8,2.23,3.968,3.968,0,0,1,1.77,3.21c0,1.49-.57,2.63-3.11,3.82-2.01.94-4.55,1.1-7.76,1.1a33.415,33.415,0,0,1-5.39-.37,34.776,34.776,0,0,1-5.06-1.26V39.81a26.95,26.95,0,0,0,9.08,2.52,14.737,14.737,0,0,0,4.73-.31c.95-.35,1.22-.81,1.22-1.4,0-.9-.83-1.27-2.48-1.78-1.37-.4-3.14-.87-5.31-1.43a19.04,19.04,0,0,1-5.76-2.17,3.5,3.5,0,0,1-1.91-2.88c0-1.71,1.03-2.94,3.06-3.83,1.97-.85,4.74-1.09,8.09-1.09Zm136.69,0a33.459,33.459,0,0,1,9.19,1.4v3.53a26.554,26.554,0,0,0-7.31-1.88,14.557,14.557,0,0,0-5.34.3c-.99.3-1.43.66-1.43,1.2,0,.65.83,1.26,2.5,1.81q.705.255,5.4,1.39a18.712,18.712,0,0,1,5.8,2.23,3.968,3.968,0,0,1,1.77,3.21c0,1.49-.57,2.63-3.11,3.82-2.01.94-4.55,1.1-7.76,1.1a33.415,33.415,0,0,1-5.39-.37,34.776,34.776,0,0,1-5.06-1.26V39.81a26.95,26.95,0,0,0,9.08,2.52,14.737,14.737,0,0,0,4.73-.31c.95-.35,1.22-.81,1.22-1.4,0-.9-.83-1.27-2.48-1.78-1.37-.4-3.14-.87-5.31-1.43a19.039,19.039,0,0,1-5.76-2.17,3.5,3.5,0,0,1-1.91-2.88c0-1.71,1.03-2.94,3.06-3.83,1.97-.85,4.74-1.09,8.09-1.09ZM30.43,12.54c7.48.67,9.79,5.06,10.28,10.76h5.93c-1.19-8.15-7.73-12.2-18.22-12.24-.69,0-1.36.02-2.02.06l.02,28.39c-7.48-.67-9.8-5.06-10.29-10.76H10.2c1.19,8.15,7.73,12.2,18.22,12.24h0c.68,0,1.35-.02,2-.06V12.54Zm2.7,26.52v1.61c7.73-1.11,12.52-5.06,13.52-11.91H40.72C40.3,33.7,38.5,37.67,33.13,39.06ZM23.7,13V11.39C15.98,12.5,11.2,16.45,10.2,23.3h5.93c.42-4.94,2.22-8.9,7.57-10.3ZM28.42,0C12.72,0,0,11.65,0,26.03S12.72,52.06,28.42,52.06,56.84,40.41,56.84,26.03,44.11,0,28.42,0Zm-.1,50.56A24.53,24.53,0,1,1,52.85,26.03,24.527,24.527,0,0,1,28.32,50.56ZM62.4,21.95H59.31a23.668,23.668,0,0,1,.34,4.06,24.594,24.594,0,0,1-.34,4.05H62.4c.76,0,1.38-1.82,1.38-4.06s-.62-4.06-1.38-4.06Z"/>
</svg>
